<svg width="263" height="80" viewBox="0 0 263 80" fill="none" xmlns="http://www.w3.org/2000/svg">
<path d="M67.04 61.1345C67.0396 62.9044 67.3073 64.4769 67.8438 65.8513C68.3802 67.2256 69.138 68.3905 70.1152 69.3455C71.0908 70.3003 72.266 71.0336 73.6406 71.5457C75.0154 72.0578 76.5411 72.3142 78.2178 72.3142C79.8964 72.3142 81.4222 72.0578 82.7949 71.5457C84.1675 71.0336 85.3427 70.3003 86.3203 69.3455C87.2979 68.3872 88.0548 67.2222 88.5908 65.8513C89.1269 64.4802 89.3955 62.9077 89.3955 61.1345V30.0447H98.4824V61.1335C98.4824 63.7429 98.0163 66.2006 97.084 68.5056C96.1813 70.7679 94.8128 72.8155 93.0674 74.5144C91.4297 76.1099 89.4539 77.3877 87.1406 78.3474L86.6729 78.533C84.1567 79.511 81.3385 79.9998 78.2188 79.9998C75.0536 80.003 72.2247 79.5147 69.7324 78.5349C67.2402 77.5552 65.1207 76.2149 63.374 74.5144C61.6272 72.816 60.2571 70.7692 59.3535 68.5066C58.422 66.2011 57.9561 63.7435 57.9561 61.1345V30.0447H67.04V61.1345ZM19.6357 48.6296C20.291 49.8873 20.8852 51.0521 21.418 52.1238C21.9507 53.1954 22.4623 54.2431 22.9521 55.2673C23.4453 56.292 23.9233 57.3408 24.3867 58.4128C24.8502 59.4849 25.339 60.6259 25.8516 61.8357C26.3632 60.626 26.852 59.4848 27.3184 58.4128C27.7847 57.3408 28.2624 56.292 28.751 55.2673C29.2408 54.2428 29.7533 53.1949 30.2881 52.1238C30.8229 51.0525 31.4171 49.8877 32.0703 48.6296L41.5723 30.0447H51.7021V78.9539H42.6182V58.3416C42.6182 57.037 42.6298 55.8141 42.6533 54.6736C42.6768 53.5333 42.7116 52.4271 42.7578 51.3552C42.8048 50.2827 42.874 49.176 42.9668 48.0359C43.0596 46.8957 43.1533 45.673 43.2461 44.3679H42.9668C42.4535 45.5792 41.9767 46.7323 41.5352 47.8269C41.0935 48.9217 40.6394 49.9929 40.1738 51.0398C39.7087 52.0868 39.22 53.1469 38.707 54.2195C38.1941 55.292 37.6116 56.4331 36.9609 57.6433L25.8516 78.9539L14.7412 57.6433C14.091 56.4315 13.5089 55.2903 12.9951 54.2195C12.4813 53.1486 11.9926 52.0884 11.5283 51.0398C11.0628 49.9925 10.5972 48.9212 10.1309 47.8269C9.66453 46.7326 9.19849 45.5797 8.7334 44.3679H8.4541C8.54647 45.6726 8.63979 46.8953 8.7334 48.0359C8.827 49.1764 8.8962 50.2831 8.94238 51.3552C8.98897 52.4263 9.02435 53.5324 9.04785 54.6736C9.07135 55.8149 9.08301 57.0378 9.08301 58.3416V78.9539H0V30.0447H10.1309L19.6357 48.6296ZM128.84 30.0447C131.028 30.0435 133.042 30.3584 134.883 30.988C136.724 31.6177 138.307 32.5144 139.634 33.6785C140.957 34.8378 142.017 36.2671 142.743 37.8699C143.489 39.5018 143.861 41.3181 143.861 43.3191C143.861 45.6031 143.384 47.5372 142.429 49.1199C141.467 50.7104 140.167 52.0699 138.621 53.1023C140.716 54.313 142.405 55.8965 143.688 57.8523V57.8552C144.968 59.8122 145.607 62.1878 145.607 64.9822C145.605 67.0793 145.233 68.9894 144.491 70.7117C143.777 72.3909 142.703 73.8931 141.346 75.113C139.994 76.3212 138.376 77.2634 136.489 77.9392C134.603 78.615 132.519 78.9538 130.236 78.9539H104.735V30.0447H128.84ZM160.558 78.9539H151.475V30.0447H160.558V78.9539ZM113.818 71.2673H129.538C132.005 71.2698 133.787 70.6527 134.883 69.4158C135.978 68.1816 136.525 66.5864 136.525 64.6306C136.526 62.7197 135.966 61.0774 134.848 59.7039C133.729 58.3304 131.959 57.6433 129.538 57.6433H113.818V71.2673ZM113.818 49.9578H128.141C130.238 49.9582 131.869 49.3992 133.032 48.281C134.196 47.1627 134.778 45.6255 134.778 43.6697C134.78 41.7131 134.198 40.2344 133.032 39.2332C131.867 38.232 130.236 37.7312 128.141 37.7312H113.818V49.9578Z" fill="white"/>
<path d="M194 57C200.075 57 205 61.9249 205 68C205 70.9174 203.841 73.7154 201.778 75.7783C199.715 77.8412 196.917 79 194 79C187.925 79 183 74.0751 183 68C183 61.9249 187.925 57 194 57ZM222.812 57C228.887 57 233.812 61.9249 233.812 68C233.812 70.9174 232.653 73.7154 230.59 75.7783C228.527 77.8411 225.729 79 222.812 79C216.737 78.9999 211.812 74.0751 211.812 68C211.812 61.9249 216.737 57.0001 222.812 57ZM194 29C200.075 29 205 33.9249 205 40C205 46.0751 200.075 51 194 51C187.925 51 183 46.0751 183 40C183 33.9249 187.925 29 194 29ZM222.812 29C228.887 29 233.812 33.9249 233.812 40C233.812 42.9174 232.653 45.7154 230.59 47.7783C228.527 49.8411 225.729 51 222.812 51C216.737 50.9999 211.812 46.0751 211.812 40C211.812 33.9249 216.737 29.0001 222.812 29ZM251.624 29C257.699 29.0002 262.624 33.925 262.624 40C262.624 42.9174 261.464 45.7154 259.401 47.7783C257.339 49.8409 254.541 50.9999 251.624 51C245.549 51 240.624 46.0751 240.624 40C240.624 33.9249 245.549 29 251.624 29ZM194 0C200.075 3.16534e-08 205 4.92487 205 11C205 17.0751 200.075 22 194 22C187.925 22 183 17.0751 183 11C183 4.92487 187.925 0 194 0ZM222.812 0C228.887 0 233.812 4.92487 233.812 11C233.812 13.9174 232.653 16.7154 230.59 18.7783C228.527 20.8411 225.729 22 222.812 22C216.737 21.9999 211.812 17.0751 211.812 11C211.812 4.92495 216.737 0.000131913 222.812 0Z" fill="white"/>
</svg>
