<svg width="80" height="80" viewBox="0 0 80 80" fill="none" xmlns="http://www.w3.org/2000/svg">
<path d="M11 57C17.0751 57 22 61.9249 22 68C22 70.9174 20.8412 73.7154 18.7783 75.7783C16.7154 77.8412 13.9174 79 11 79C4.92487 79 3.16544e-08 74.0751 0 68C0 61.9249 4.92487 57 11 57ZM39.8115 57C45.8867 57 50.8115 61.9249 50.8115 68C50.8115 70.9174 49.6527 73.7154 47.5898 75.7783C45.527 77.8411 42.7288 79 39.8115 79C33.7365 78.9999 28.8115 74.0751 28.8115 68C28.8115 61.9249 33.7365 57.0001 39.8115 57ZM11 29C17.0751 29 22 33.9249 22 40C22 46.0751 17.0751 51 11 51C4.92487 51 3.16544e-08 46.0751 0 40C0 33.9249 4.92487 29 11 29ZM39.8115 29C45.8867 29 50.8115 33.9249 50.8115 40C50.8115 42.9174 49.6527 45.7154 47.5898 47.7783C45.527 49.8411 42.7288 51 39.8115 51C33.7365 50.9999 28.8115 46.0751 28.8115 40C28.8115 33.9249 33.7365 29.0001 39.8115 29ZM68.624 29C74.699 29.0002 79.624 33.925 79.624 40C79.624 42.9174 78.4643 45.7154 76.4014 47.7783C74.3386 49.8409 71.5411 50.9999 68.624 51C62.5489 51 57.624 46.0751 57.624 40C57.624 33.9249 62.5489 29 68.624 29ZM11 0C17.0751 3.16534e-08 22 4.92487 22 11C22 17.0751 17.0751 22 11 22C4.92487 22 3.16544e-08 17.0751 0 11C0 4.92487 4.92487 0 11 0ZM39.8115 0C45.8867 0 50.8115 4.92487 50.8115 11C50.8115 13.9174 49.6527 16.7154 47.5898 18.7783C45.527 20.8411 42.7288 22 39.8115 22C33.7365 21.9999 28.8115 17.0751 28.8115 11C28.8115 4.92495 33.7365 0.000131913 39.8115 0Z" fill="white"/>
</svg>
