<svg width="24" height="24" viewBox="0 0 24 24" fill="none" xmlns="http://www.w3.org/2000/svg">
<path d="M21.0801 5C21.5881 5.00004 22 5.41188 22 5.91992V18.0801C22 18.5881 21.5881 19 21.0801 19H2.91992C2.41188 19 2.00004 18.5881 2 18.0801V5.91992C2.00004 5.41188 2.41188 5.00004 2.91992 5H21.0801ZM5.67969 8.33105V15.7656H6.95996V12.5264H10.0996V15.7656H11.3799V8.33105H10.0996V11.4219H6.95996V8.33105H5.67969ZM12.7393 8.33105V15.7656H15.1299C15.9495 15.7656 16.6244 15.6115 17.1543 15.3037C17.6843 14.9957 18.0783 14.5636 18.335 14.0078C18.5916 13.452 18.7197 12.7983 18.7197 12.0479C18.7197 11.2976 18.5915 10.6445 18.335 10.0889C18.0783 9.5331 17.6843 9.10095 17.1543 8.79297C16.6244 8.48521 15.9495 8.33108 15.1299 8.33105H12.7393ZM15.0693 9.48828C15.6559 9.48828 16.12 9.59163 16.46 9.79688C16.7998 10.0022 17.0428 10.2965 17.1895 10.6787C17.336 11.0609 17.4101 11.5172 17.4102 12.0479C17.4102 12.586 17.3361 13.045 17.1895 13.4238C17.0428 13.8025 16.7998 14.0932 16.46 14.2949C16.12 14.4966 15.6559 14.5977 15.0693 14.5977H14.0195V9.48828H15.0693Z" fill="#323232"/>
</svg>
